HIERARCHY
ROOT Hips
{
	OFFSET 0.000000 0.000000 0.000000 
	CHANNELS 6 Xposition Yposition Zposition Zrotation Yrotation Xrotation
	JOINT LeftUpLeg
	{
		OFFSET 1.363060 -1.794630 0.839290 
		CHANNELS 3 Zrotation Yrotation Xrotation
		JOINT LeftLeg
		{
			OFFSET 2.448110 -6.726130 0.000000 
			CHANNELS 3 Zrotation Yrotation Xrotation
			JOINT LeftFoot
			{
				OFFSET 2.562200 -7.039590 0.000000 
				CHANNELS 3 Zrotation Yrotation Xrotation
				JOINT LeftToeBase
				{
					OFFSET 0.157640 -0.433110 2.322550 
					CHANNELS 3 Zrotation Yrotation Xrotation
					End Site
					{
						OFFSET 0.000000 0.000000 0.000000 
					}
				}
			}
		}
	}
	JOINT RightUpLeg
	{
		OFFSET -1.305520 -1.794630 0.839290 
		CHANNELS 3 Zrotation Yrotation Xrotation
		JOINT RightLeg
		{
			OFFSET -2.542530 -6.985550 0.000000 
			CHANNELS 3 Zrotation Yrotation Xrotation
			JOINT RightFoot
			{
				OFFSET -2.568260 -7.056230 0.000000 
				CHANNELS 3 Zrotation Yrotation Xrotation
				JOINT RightToeBase
				{
					OFFSET -0.164730 -0.452590 2.363150 
					CHANNELS 3 Zrotation Yrotation Xrotation
					End Site
					{
						OFFSET 0.000000 0.000000 0.000000 
					}
				}
			}
		}
	}
	JOINT Spine
	{
		OFFSET 0.028270 2.035590 -0.193380 
		CHANNELS 3 Zrotation Yrotation Xrotation
		JOINT Spine1
		{
			OFFSET 0.056720 2.048850 -0.042750 
			CHANNELS 3 Zrotation Yrotation Xrotation
			JOINT Neck1
			{
				OFFSET -0.054170 1.746240 0.172020 
				CHANNELS 3 Zrotation Yrotation Xrotation
				JOINT Head
				{
					OFFSET 0.104070 1.761360 -0.123970 
					CHANNELS 3 Zrotation Yrotation Xrotation
					End Site
					{
						OFFSET 0.000000 0.000000 0.000000 
					}
				}
			}
			JOINT LeftArm
			{
				OFFSET 3.362410 1.200890 -0.311210 
				CHANNELS 3 Zrotation Yrotation Xrotation
				JOINT LeftForeArm
				{
					OFFSET 4.983000 -0.000000 -0.000000 
					CHANNELS 3 Zrotation Yrotation Xrotation
					JOINT LeftHand
					{
						OFFSET 3.483560 -0.000000 -0.000000 
						CHANNELS 3 Zrotation Yrotation Xrotation
						JOINT LeftHandIndex1
						{
							OFFSET 0.715260 -0.000000 -0.000000 
							CHANNELS 3 Zrotation Yrotation Xrotation
							End Site
							{
								OFFSET 0.000000 0.000000 0.000000 
							}
						}
					}
				}
			}
			JOINT RightArm
			{
				OFFSET -3.136600 1.374050 -0.404650 
				CHANNELS 3 Zrotation Yrotation Xrotation
				JOINT RightForeArm
				{
					OFFSET -5.241900 -0.000000 -0.000000 
					CHANNELS 3 Zrotation Yrotation Xrotation
					JOINT RightHand
					{
						OFFSET -3.444170 -0.000000 -0.000000 
						CHANNELS 3 Zrotation Yrotation Xrotation
						JOINT RightHandIndex1
						{
							OFFSET -0.622530 -0.000000 -0.000000 
							CHANNELS 3 Zrotation Yrotation Xrotation
							End Site
							{
								OFFSET 0.000000 0.000000 0.000000 
							}
						}
					}
				}
			}
		}
	}
}
MOTION
Frames: 12
Frame Time: 0.041667
11.342472 2.587097 6.477213 179.422354 -1.706088 54.748391 24.354563 21.530813 -50.190185 5.548712 8.988038 32.296562 -0.065977 5.946817 20.029325 4.840300 13.201700 40.128300 -34.919767 -8.194778 -49.881519 -3.279318 -7.157338 22.993359 4.847217 -20.049376 4.845079 -0.906400 -6.066900 16.978500 -0.237255 2.728830 0.184973 -7.729604 3.692119 0.042545 2.816884 -2.442245 18.910784 0.469300 -0.509800 4.205900 9.145637 -56.841497 -28.935073 89.497891 -58.804496 -63.517704 1.174604 -1.592558 -1.149430 -7.125000 0.000000 0.000000 11.734836 47.433824 -27.316489 -98.483552 58.588481 -76.599797 1.198649 3.110397 5.682884 7.125000 0.000000 0.000000 
11.333571 2.408463 6.370612 178.724268 -0.584250 57.358007 25.101694 22.028323 -50.042524 5.901509 9.401734 33.831507 -0.124539 5.906214 19.422728 5.064700 13.456300 41.101400 -32.856066 -8.426500 -49.650069 -3.457318 -7.595776 24.225797 4.585980 -19.576408 6.493380 -0.585900 -4.900800 13.625800 -0.197289 2.979746 0.262740 -8.554074 3.868872 0.323887 2.256833 -2.895944 21.486902 0.202300 -0.599200 5.013900 3.277022 -56.468967 -18.813937 85.890375 -58.190157 -60.151179 1.097004 -1.456496 -1.986220 -7.125000 0.000000 0.000000 16.770842 46.850004 -18.759353 -92.208393 56.753273 -71.507628 1.171446 3.186946 6.392994 7.125000 0.000000 0.000000 
11.330570 2.236348 6.267530 178.005544 0.739997 59.979081 26.145178 22.374075 -49.842460 6.261109 9.820981 35.433442 -0.139597 5.639085 18.509142 4.929500 13.304000 40.517400 -30.549312 -8.589261 -49.497376 -3.647304 -8.079166 25.593394 4.397827 -19.332455 7.887357 -0.608700 -4.993900 13.891100 -0.103306 2.967091 0.350386 -8.816789 3.885808 0.620548 2.588516 -2.752466 23.215410 0.396600 -0.419100 5.898100 -3.395665 -54.357990 -8.566232 83.702155 -57.551222 -58.109510 1.047764 -1.353267 -2.572756 -7.125000 0.000000 0.000000 21.427775 47.328499 -10.485508 -85.900656 54.234208 -65.601395 1.358107 3.138329 7.312529 7.125000 0.000000 0.000000 
11.331294 2.063820 6.173659 178.037432 0.540204 62.862707 25.488437 22.569022 -49.340464 6.468818 10.137721 36.535169 -0.139470 5.363548 17.606525 4.806400 13.162400 39.979300 -30.000125 -9.014455 -49.812084 -3.919940 -8.540275 27.108872 4.218330 -19.102620 8.797164 -0.656700 -5.183300 14.432000 -0.113394 2.844811 0.323677 -8.549839 3.737374 0.521497 1.615757 -2.634505 24.595868 -0.082000 -0.249400 6.462000 -9.069977 -54.312273 0.400260 77.028297 -56.220094 -51.810581 0.968135 -1.107277 -2.239883 -7.125000 0.000000 0.000000 25.841378 47.965733 -2.819625 -80.279261 51.272247 -59.618872 1.534780 3.073687 7.109910 7.125000 0.000000 0.000000 
11.331191 1.917580 6.085687 177.927305 0.666834 65.532633 25.167070 22.757483 -48.722580 6.686637 10.447382 37.565242 -0.159453 5.282113 17.029875 4.697800 13.035100 39.500100 -29.072316 -9.389638 -49.834116 -4.180537 -8.980629 28.554029 4.063305 -18.889051 9.598569 -0.593500 -4.932100 13.715100 -0.048263 2.671497 0.294548 -8.086196 3.541902 0.421831 1.158450 -2.415488 25.857218 -0.190400 -0.075500 7.018100 -15.637468 -54.009266 9.191654 70.266075 -54.519195 -45.295152 0.909889 -0.803177 -1.900637 -7.125000 0.000000 0.000000 30.042717 49.064104 4.359260 -74.668797 48.068685 -53.080551 1.867748 3.011940 6.370454 7.125000 0.000000 0.000000 
11.348371 1.784587 6.027936 177.525737 1.862059 69.037808 25.740379 23.207820 -48.940209 6.940434 10.707687 38.611401 -0.266681 5.392972 16.266343 4.443900 12.728700 38.361300 -27.170733 -9.644620 -50.390492 -4.410548 -9.452222 30.059935 4.058729 -19.014656 9.873261 -1.005600 -6.381000 17.893900 0.121999 2.651201 0.241708 -7.635775 3.393452 0.872710 2.131831 -2.180061 27.646393 0.471900 0.128500 8.002600 -21.585637 -53.899713 16.646169 63.691892 -52.481678 -38.938203 0.751953 -0.467413 -2.568303 -7.125000 0.000000 0.000000 33.829011 50.433389 10.014226 -69.183905 45.056437 -46.524521 2.252724 2.893929 5.213861 7.125000 0.000000 0.000000 
11.365034 1.660495 5.973393 177.333611 2.997638 72.646879 26.107499 23.560673 -49.244025 7.168847 10.933692 39.507752 -0.419170 5.751363 15.835043 4.388700 12.660500 38.110400 -25.375394 -10.046641 -51.211954 -4.690191 -9.943389 31.682282 4.012870 -19.159193 10.463554 -1.154700 -6.822500 19.190600 0.245590 2.646300 0.212865 -7.428790 3.277008 1.524422 2.286036 -2.077777 29.190357 0.608200 0.295500 8.873700 -27.209085 -54.065889 23.126707 57.825983 -50.382201 -33.369380 0.759899 -0.143349 -4.595152 -7.125000 0.000000 0.000000 37.393694 51.954823 14.063331 -64.094450 42.384169 -40.608369 2.617796 2.970406 3.811606 7.125000 0.000000 0.000000 
11.379213 1.563519 5.955799 176.923187 4.243542 76.813008 26.564357 24.380152 -49.789889 7.357014 11.091525 40.177732 -0.585070 6.211312 15.574134 4.523200 12.825800 38.719900 -23.672408 -9.763760 -51.835307 -4.757151 -10.170656 32.254742 4.118030 -19.761999 10.884760 -1.190100 -6.922700 19.486500 0.378391 2.808318 0.103080 -7.303902 3.146325 2.059362 1.441252 -1.890480 27.861928 0.007400 0.400100 7.818700 -33.262212 -54.301074 29.556872 52.496770 -47.701987 -28.350791 0.674248 0.185238 -7.273079 -7.125000 0.000000 0.000000 41.239080 53.531007 17.462976 -59.311256 40.070742 -35.346098 3.024952 3.039095 1.726054 7.125000 0.000000 0.000000 
11.389977 1.510425 5.960146 176.668334 5.541934 81.241480 26.934348 25.375571 -50.519216 7.500857 11.198337 40.687037 -0.704852 6.564097 15.456959 3.915800 12.047600 35.900400 -22.289081 -9.046933 -51.969654 -4.664979 -10.191128 32.033237 4.241279 -20.396594 11.339323 -1.117400 -6.715100 18.874000 0.550828 2.937832 -0.089756 -6.960170 2.974030 2.800770 0.638217 -1.824280 27.469260 -0.408700 0.451800 7.338000 -39.196048 -54.771662 35.588383 47.721182 -44.219183 -23.702670 0.290560 0.527916 -10.665492 -7.125000 0.000000 0.000000 45.230641 55.246746 20.576689 -54.132677 37.808017 -30.242299 3.423916 3.357476 -1.086793 7.125000 0.000000 0.000000 
11.394323 1.515186 5.940999 177.089164 6.638322 85.265539 26.845959 26.049511 -51.392327 7.708778 11.373948 41.527103 -0.689620 6.632992 15.960509 3.548800 11.534500 34.104600 -20.971589 -9.272108 -52.130266 -4.790324 -10.389810 32.650340 3.996492 -20.177982 12.854317 -0.981100 -6.305100 17.672200 0.728599 2.769070 -0.223178 -6.604014 2.752327 4.040322 0.199445 -1.710520 27.823989 -0.595800 0.575300 7.289300 -44.967101 -55.671001 40.579920 43.691313 -40.750006 -20.052464 -0.040411 0.889498 -14.315624 -7.125000 0.000000 0.000000 49.634846 56.761004 23.346355 -49.350374 35.873720 -25.927443 3.707043 3.508424 -3.635227 7.125000 0.000000 0.000000 
11.388528 1.557930 5.860893 177.772312 7.144920 87.870299 26.484465 26.191846 -51.241119 8.034471 11.690734 42.643628 -0.788724 7.386091 17.116144 4.157300 12.366800 37.042300 -19.871500 -10.073623 -51.915116 -5.207034 -10.881161 34.380741 3.473051 -19.595641 15.423706 -1.134400 -6.764400 19.019200 0.810768 2.588226 -0.141492 -6.513654 2.720388 5.654064 0.406136 -1.657867 28.571719 -0.481800 0.695700 7.528200 -50.740039 -57.269731 45.147732 40.127544 -37.313631 -16.953777 -0.391618 1.130634 -17.518653 -7.125000 0.000000 0.000000 53.969488 57.833135 25.142465 -44.734582 34.145517 -22.326152 3.878076 3.814017 -6.117228 7.125000 0.000000 0.000000 
11.379316 1.616095 5.734938 178.263016 7.341510 89.270735 26.367791 25.996165 -49.672970 8.366667 12.046440 43.363630 -1.254027 9.664918 18.354466 4.301300 12.550800 37.709600 -19.046593 -10.585998 -50.803371 -5.642801 -11.401428 36.123053 3.113731 -19.491002 17.440663 -1.506200 -7.751300 21.961100 0.912238 2.421857 0.184186 -6.054317 2.788715 7.576096 0.721549 -1.525110 29.360089 -0.277600 0.815000 7.859100 -56.197132 -59.296002 48.316353 36.546765 -34.084259 -14.337090 -0.733215 1.329624 -20.828892 -7.125000 0.000000 0.000000 58.152672 59.724271 26.993723 -40.292844 31.978088 -19.078881 4.047025 4.125943 -7.988794 7.125000 0.000000 0.000000 
